# xmcd
# 
# Track frame offsets:
#   150
#   21539
#   35935
#   54228
#   71432
#   86044
#   101613
#   121076
#   136267
#   150468
#   169196
#   188623
# 
# Disc length: 2778 seconds
# 
# Revision: 0
# Processed by: cddbd v1.5.2PL0 Copyright (c) Steve Scherf et al.
# Submitted via: Synapstar 1.0 
# 
DISCID=9b0ad80c
DTITLE=Various Artist - March 2011
DYEAR=1900
DGENRE=Country
TTITLE0=Zac Brown Band - Colder Weather
TTITLE1=Miranda Lambert - Heart Like Mine
TTITLE2=Rascal Flatt - I Won't Let Go
TTITLE3=The Band Perry - You Lie
TTITLE4=Ashton Shephard - Look It Up
TTITLE5=Trace Adkins - Brown Chicken Brown Cow
TTITLE6=Randy Montana - 1,000 Faces
TTITLE7=Blake Wise - I've Got This Feeling
TTITLE8=Alabama - Are You Sure Hank Done It That Way
TTITLE9=Keith Urban - Without You
TTITLE10=Taylor Swift - Mean
TTITLE11=Margaret Durante - Mississippi Cryin
EXTD=MediaType: Karaoke CD+G Producer: Chartbuster
EXTT0=
EXTT1=
EXTT2=
EXTT3=
EXTT4=
EXTT5=
EXTT6=
EXTT7=
EXTT8=
EXTT9=
EXTT10=
EXTT11=
PLAYORDER=
